<svg id="visual" viewBox="0 0 960 540" width="960" height="540" xmlns="http://www.w3.org/2000/svg" xmlns:xlink="http://www.w3.org/1999/xlink" version="1.1"><rect x="0" y="0" width="960" height="540" fill="#F2FBF9"></rect><defs><linearGradient id="grad1_0" x1="43.8%" y1="0%" x2="100%" y2="100%"><stop offset="14.444444444444446%" stop-color="#f2fbf9" stop-opacity="1"></stop><stop offset="85.55555555555554%" stop-color="#f2fbf9" stop-opacity="1"></stop></linearGradient></defs><defs><linearGradient id="grad2_0" x1="0%" y1="0%" x2="56.3%" y2="100%"><stop offset="14.444444444444446%" stop-color="#f2fbf9" stop-opacity="1"></stop><stop offset="85.55555555555554%" stop-color="#f2fbf9" stop-opacity="1"></stop></linearGradient></defs><g transform="translate(960, 0)"><path d="M0 297C-31.2 293.7 -62.3 290.4 -90.9 279.6C-119.4 268.8 -145.2 250.5 -167.5 230.6C-189.9 210.6 -208.7 189.1 -229 166.3C-249.2 143.6 -270.9 119.7 -282.5 91.8C-294 63.9 -295.5 31.9 -297 0L0 0Z" fill="#16433C"></path></g><g transform="translate(0, 540)"><path d="M0 -297C32.1 -295.2 64.1 -293.5 91.8 -282.5C119.4 -271.4 142.7 -251.1 169.3 -233C195.9 -214.9 225.9 -198.9 238.7 -173.4C251.5 -147.9 247.1 -113 253.9 -82.5C260.8 -52 278.9 -26 297 0L0 0Z" fill="#16433C"></path></g></svg>