<svg id="visual" viewBox="0 0 900 600" width="900" height="600" xmlns="http://www.w3.org/2000/svg" xmlns:xlink="http://www.w3.org/1999/xlink" version="1.1"><g transform="translate(452.214681626615 322.74431425862446)"><path d="M112.1 -155.4C154.2 -123.8 203.1 -102.9 208.5 -71.3C214 -39.7 175.9 2.6 148 35.6C120.1 68.7 102.4 92.6 79.4 128.3C56.4 164 28.2 211.5 3.1 207.3C-22 203 -44.1 147 -83.6 116.7C-123 86.3 -179.9 81.6 -201.7 55.8C-223.5 30 -210.2 -17 -200.1 -70.3C-190 -123.5 -183.2 -183.1 -150.4 -217.6C-117.6 -252.1 -58.8 -261.6 -11.9 -245.3C35.1 -228.9 70.1 -186.9 112.1 -155.4" fill="#7DE0CB"></path></g></svg>