<svg id="visual" viewBox="0 0 960 150" width="960" height="150" xmlns="http://www.w3.org/2000/svg" xmlns:xlink="http://www.w3.org/1999/xlink" version="1.1"><path d="M0 40L13.3 47.5C26.7 55 53.3 70 80 76.7C106.7 83.3 133.3 81.7 160 79.2C186.7 76.7 213.3 73.3 240 65.3C266.7 57.3 293.3 44.7 320 46.5C346.7 48.3 373.3 64.7 400 65.3C426.7 66 453.3 51 480 49.7C506.7 48.3 533.3 60.7 560 63.2C586.7 65.7 613.3 58.3 640 56C666.7 53.7 693.3 56.3 720 63.7C746.7 71 773.3 83 800 83C826.7 83 853.3 71 880 69.8C906.7 68.7 933.3 78.3 946.7 83.2L960 88L960 0L946.7 0C933.3 0 906.7 0 880 0C853.3 0 826.7 0 800 0C773.3 0 746.7 0 720 0C693.3 0 666.7 0 640 0C613.3 0 586.7 0 560 0C533.3 0 506.7 0 480 0C453.3 0 426.7 0 400 0C373.3 0 346.7 0 320 0C293.3 0 266.7 0 240 0C213.3 0 186.7 0 160 0C133.3 0 106.7 0 80 0C53.3 0 26.7 0 13.3 0L0 0Z" fill="#16433C" stroke-linecap="round" stroke-linejoin="miter"></path></svg>