<svg id="visual" viewBox="0 0 960 150" width="960" height="150" xmlns="http://www.w3.org/2000/svg" xmlns:xlink="http://www.w3.org/1999/xlink" version="1.1"><path d="M0 91L17.8 87C35.7 83 71.3 75 106.8 75C142.3 75 177.7 83 213.2 78.2C248.7 73.3 284.3 55.7 320 58.8C355.7 62 391.3 86 426.8 93.7C462.3 101.3 497.7 92.7 533.2 90.2C568.7 87.7 604.3 91.3 640 90.3C675.7 89.3 711.3 83.7 746.8 81C782.3 78.3 817.7 78.7 853.2 83.3C888.7 88 924.3 97 942.2 101.5L960 106L960 151L942.2 151C924.3 151 888.7 151 853.2 151C817.7 151 782.3 151 746.8 151C711.3 151 675.7 151 640 151C604.3 151 568.7 151 533.2 151C497.7 151 462.3 151 426.8 151C391.3 151 355.7 151 320 151C284.3 151 248.7 151 213.2 151C177.7 151 142.3 151 106.8 151C71.3 151 35.7 151 17.8 151L0 151Z" fill="#16433C" stroke-linecap="round" stroke-linejoin="miter"></path></svg>